<svg width="4661" height="1575" viewBox="0 0 4661 1575" fill="none" xmlns="http://www.w3.org/2000/svg">
<g filter="url(#filter0_d_10_63)">
<path d="M2482.99 827.573C2484.56 833.723 2484.89 840.107 2484 841.726C2483.1 843.322 2481.48 839.529 2480.06 833.476C2479.31 830.268 2478 824.957 2475.93 818.006C2470.25 800.183 2460.9 768.935 2435.71 738.027C2425.95 722.81 2405.57 720.785 2386.43 722.694C2348.81 726.065 2306.91 733.579 2261.65 735.036C2233.23 735.52 2204.28 736.878 2174.01 734.541C2160.58 733.105 2147.6 731.77 2135.95 723.272C2129.57 718.526 2125.42 710.865 2123.89 703.839C2121.21 692.085 2120.07 679.764 2123.42 666.259C2127.05 651.831 2134.2 634.424 2150.71 621.415C2168.92 607.162 2192.23 594.135 2222.93 582.238C2246.22 573.298 2270.13 566.488 2294.41 561.457C2337.93 551.414 2387.75 546.773 2422.23 529.138C2434.98 520.178 2450.7 509.051 2450.6 501.714C2451.6 483.624 2450.36 464.916 2443.66 449.706C2431.82 424.215 2417.32 394.76 2396 385.066C2361.5 382.048 2315.5 389.017 2275.22 394.523C2250.32 397.367 2228.01 405.645 2204.2 414.909C2158.06 432.918 2113.65 458.02 2061.97 468.45C2041.39 471.708 2020.87 475.082 1999.54 476.176C1988.84 476.572 1977.77 476.666 1966.28 473.099C1954.57 469.911 1944.18 459.086 1940.47 448.11C1934.46 431.92 1933.11 415.338 1934.24 398.823C1935.36 384.323 1936.88 368.347 1945.18 353.83C1964.48 310.794 2010.39 284.42 2052.1 269.104C2070.22 262.127 2088.46 255.864 2106.81 249.862C2128.08 242.93 2149.49 236.448 2171.13 230.62C2201.97 222.183 2233.36 216.306 2263.79 209.196C2296.57 201.425 2329.9 195.24 2358.26 181.292C2380 170.074 2402.85 160.301 2420.35 146.617C2428.95 139.729 2436.06 131.076 2435.62 120.532C2434.6 96.024 2433.78 62.6974 2420.82 45.6947C2413.14 37.5731 2408.05 33.4155 2401.06 34.2132C2362.79 37.7102 2327.5 46.4897 2300.78 55.7452C2281.57 62.0477 2266.35 65.9538 2257.31 68.099C2251.09 69.6208 2245.08 69.5269 2244.63 68.2454C2245.26 67.2187 2250.4 65.5294 2256.58 64.0255C2265.41 61.9237 2280.52 58.0455 2299.46 51.8341C2326.25 42.5421 2362.1 33.6168 2400.63 30.1041C2409.49 28.9633 2416.4 34.9223 2423.72 42.7439C2438.8 62.9521 2438.46 95.4378 2439.75 120.393C2440.25 132.508 2432.28 142.217 2423.66 149.249C2405.26 163.875 2382.09 173.611 2360.12 184.982C2330.87 199.338 2297.43 205.45 2264.7 213.229C2234.11 220.375 2202.86 226.227 2172.16 234.629C2151.14 240.291 2130.31 246.588 2109.6 253.31C2090.8 259.441 2072.07 265.866 2053.57 273.015C2011.91 288.526 1968.1 313.585 1949.08 356.081C1941.45 369.489 1939.94 384.76 1938.9 399.161C1937.86 415.055 1939.32 431.213 1945.02 446.324C1952.09 469.297 1979.78 472.478 1999.32 470.981C2020.14 469.808 2040.6 466.344 2061.09 462.972C2110.99 452.65 2155.39 427.41 2201.85 408.869C2225.4 399.511 2249.03 390.632 2274.2 387.626C2315.48 381.995 2357.94 374.008 2398.71 377.793C2425.45 390.356 2438.51 420.272 2451.16 446.262C2458.84 463.577 2460.02 483.195 2459.11 502.133C2456.92 518.025 2439.75 526.578 2427.28 536.229C2387.35 556.733 2340.25 559.906 2296.24 570.357C2272.24 575.365 2248.63 582.129 2225.71 590.958C2195.75 602.607 2173 614.746 2155.38 627.572C2140.26 638.705 2132.97 654.051 2128.83 667.804C2125.31 679.776 2125.79 691.573 2128.15 702.908C2129.33 708.566 2132.09 714.366 2136.75 718.518C2146.5 726.972 2159.25 728.731 2172.58 730.235C2202.94 732.808 2232.72 731.352 2261.66 730.863C2306.57 729.397 2348.41 721.881 2386.23 718.485C2396.25 717.716 2406.07 717.375 2415.71 719.562C2425.53 721.419 2433.91 728.823 2439.04 735.399C2463.09 764.832 2472.47 793.977 2478.34 811.34C2480.65 818.614 2482.12 824.13 2482.99 827.573ZM2416.02 82.6255C2417.5 93.9488 2418.09 106.309 2418.07 121.128C2418.05 121.386 2418.02 121.612 2417.98 121.817C2417.89 122.273 2417.76 122.619 2417.6 122.973C2418.32 125.2 2401.9 139.064 2371.79 152.316C2364.29 155.863 2356.69 159.404 2349.09 163.082C2322.05 175.496 2288.03 181.346 2259.02 188.225C2218.97 197.134 2184.71 204.66 2165.88 210.268C2162.21 211.304 2159.03 212.226 2156.44 212.983C2121.73 223.307 2086.46 234.146 2044.84 249.716C2020.39 259.458 1993.02 269.813 1964.65 293.783C1957.77 299.774 1951.01 306.889 1945.17 314.535C1940.41 320.739 1936.44 325.39 1935.37 324.91C1934.34 324.455 1936.64 318.946 1941.5 312.542C1947.34 304.83 1954.07 297.632 1960.98 291.514C1961.01 291.487 1961.04 291.458 1961.07 291.431C1990.72 266.079 2018.71 255.729 2043.38 245.844C2084.46 230.472 2118.69 219.945 2152.39 209.83C2155.69 208.856 2159.84 207.641 2164.85 206.234C2184.62 200.375 2218.94 192.922 2258.1 184.195C2287.24 177.318 2321.2 171.357 2347.22 159.383C2355.62 155.314 2364.03 151.41 2372.2 147.526C2387.03 140.512 2398.72 134.319 2405.72 129.158C2409.23 126.617 2411.4 124.461 2412.4 123.276C2413.42 122.036 2413.46 122.013 2413.68 121.817C2413.76 121.725 2413.84 121.57 2413.89 121.27C2413.89 121.195 2413.89 121.12 2413.89 121.045C2413.89 120.999 2413.89 120.953 2413.89 120.907C2413.9 104.897 2413.21 92.4991 2411.65 81.3737C2411.62 81.1391 2411.58 80.9058 2411.55 80.6733C2410.8 75.5152 2409.71 70.3866 2408.36 66.2202C2407.59 63.44 2406.17 60.9572 2405.8 60.2678C2403.69 58.1443 2402.14 56.6978 2401.13 55.8022C2389.45 57.2365 2378.3 58.9928 2368.11 60.8455C2362.34 61.8896 2357.56 61.9648 2357.38 60.8356C2357.2 59.7091 2361.74 57.7971 2367.58 56.7422C2378.37 54.7857 2390.15 52.9629 2402.4 51.506C2403.46 52.2903 2405.6 54.2269 2409.03 57.6667C2408.48 56.6888 2411.22 60.9489 2412.5 65.5786C2413.98 70.3343 2415.09 75.9112 2415.85 81.3921C2415.91 81.8003 2415.97 82.2164 2416.02 82.6255ZM2498.27 1235.49C2498.69 1240.99 2498.65 1246.82 2498.42 1252.52C2495.31 1288.14 2460.61 1310.42 2443.07 1327.03C2441.9 1328 2440.75 1328.83 2439.56 1329.61C2426.48 1337.45 2409.43 1341.62 2399.08 1345C2394.43 1346.4 2390.33 1347.55 2386.66 1348.58C2383.03 1349.59 2379.78 1350.47 2376.75 1351.33C2351.53 1358.49 2328.29 1365.1 2300.33 1374.45C2297.8 1375.31 2295.3 1376.25 2292.79 1377.27C2285.04 1380.41 2277.28 1384.3 2269.63 1388.94C2244.1 1404.76 2230.01 1421.58 2219.91 1434.7C2215.53 1440.52 2211.98 1445.83 2208.81 1450.89C2208.75 1450.99 2208.7 1451.08 2208.64 1451.18C2208.19 1451.89 2207.75 1452.6 2207.33 1453.3C2207 1453.83 2206.69 1454.36 2206.37 1454.89C2206.26 1455.11 2206.16 1455.3 2206.08 1455.44C2206.02 1455.55 2205.97 1455.64 2205.94 1455.7C2205.94 1455.71 2205.93 1455.72 2205.93 1455.73C2205.36 1456.78 2204.86 1457.66 2204.75 1457.84C2204.57 1458.15 2204.41 1458.43 2204.33 1458.57C2203.89 1459.32 2203.34 1460.25 2202.96 1460.91C2201.99 1462.57 2200.31 1465.43 2197.9 1469.92C2195.81 1473.92 2193.96 1477.76 2191.78 1482.74C2191.65 1483.04 2191.5 1483.38 2191.37 1483.69C2189.29 1488.59 2186.91 1494.31 2184.39 1502.51C2183.8 1504.49 2183.17 1506.54 2182.6 1508.52C2179.61 1521.86 2182.24 1527.94 2181.47 1529.55C2181.2 1530.42 2180.25 1529.3 2179.19 1526.02C2178.27 1522.74 2176.7 1517.03 2178.74 1507.57C2178.9 1506.83 2179.08 1506.06 2179.29 1505.27C2181.64 1496.56 2183.81 1491.16 2185.86 1486.01C2185.99 1485.68 2186.13 1485.35 2186.25 1485.04C2188.44 1479.75 2190.63 1474.99 2193.22 1469.93C2194.1 1468.21 2195.01 1466.51 2195.89 1464.91C2197.46 1461.99 2199.25 1458.73 2201.51 1454.88C2201.96 1454.1 2202.44 1453.29 2202.92 1452.49C2206.07 1447.26 2209.87 1441.32 2214.63 1434.82C2225.87 1419.84 2241.61 1400.72 2270.53 1383.57C2278.12 1379.17 2285.9 1375.44 2293.78 1372.4C2295.48 1371.75 2297.19 1371.13 2298.9 1370.54C2328.25 1360.71 2353.84 1353.45 2381.18 1345.62C2385.09 1344.5 2388.84 1343.46 2392.81 1342.32C2394.37 1341.87 2395.98 1341.41 2397.6 1340.93C2407.77 1337.61 2425.96 1333.45 2438.65 1325.19C2439.2 1324.8 2439.74 1324.39 2440.29 1323.93C2457.14 1308.13 2491.62 1285.31 2494.29 1252.39C2494.51 1246.8 2494.55 1241.1 2494.15 1235.86C2493.92 1230.86 2492.28 1225.15 2492.28 1225.67C2484.27 1212.86 2472.03 1198.64 2457.23 1188.62C2457.04 1188.5 2456.83 1188.37 2456.62 1188.24C2449.04 1183.36 2429.18 1181.35 2409.5 1182.93C2401.85 1183.47 2393.8 1184.42 2385.62 1185.67C2376.66 1187.04 2367.31 1188.81 2357.62 1190.95C2334.78 1196.02 2309.75 1202.79 2282.31 1210.64C2246.47 1220.92 2219.52 1228.96 2196.38 1234.98C2188.81 1236.95 2181.79 1238.76 2174.97 1240.45C2174.03 1240.68 2173.09 1240.92 2172.16 1241.15C2170.97 1241.43 2169.8 1241.72 2168.66 1241.99C2150.4 1245.33 2131.68 1253.7 2096.72 1247.86C2066.16 1239.76 2032.08 1230.08 2007.82 1199.65C2000.87 1190.33 1995.76 1177.73 1995.56 1165.19C1995.51 1145.32 1994.96 1126.39 1998.66 1101.72C1999.06 1099.29 1999.51 1096.81 2000.05 1094.22C2003.08 1081.42 2004.69 1066.2 2014.55 1043.09C2017.96 1035.57 2022.63 1027.14 2029.86 1018.8C2033.94 1014.1 2038.81 1009.55 2044.44 1005.5C2069.91 987.478 2111 958.008 2173.93 954.944C2182.05 954.503 2190.32 954.283 2198.82 954.131C2219.73 953.789 2238.19 953.577 2255.3 952.996C2260.61 952.82 2265.8 952.616 2270.86 952.379C2288.53 951.542 2304.98 950.331 2319.71 948.388C2322.82 947.964 2325.73 947.581 2328.75 947.185C2343.33 944.925 2378.86 941.459 2410.18 929.643C2415.65 927.385 2420.47 924.65 2423.35 921.891C2437.71 908.051 2454.44 891.809 2457.74 882.16C2460.46 874.182 2461.86 866.536 2462.01 860.073C2462.07 857.678 2461.99 855.322 2461.76 853.065C2461.61 851.569 2461.39 850.113 2461.1 848.707C2456.88 826.981 2449.03 804.92 2440.42 789.082C2433.45 777.4 2425.25 764.796 2415.32 754.097C2412.57 751.006 2410.9 749.7 2410.31 749.606C2409.71 749.496 2409.4 749.494 2407.48 749.181C2403.72 748.568 2395.9 748.536 2387.66 749.293C2350.56 752.692 2307.28 759.35 2261.6 759.625C2236.5 759.512 2211.77 759.61 2186.29 758.073C2173.38 757.118 2160.58 756.286 2144.94 751.626C2137.16 749.148 2127.87 745.377 2119.14 737.221C2110.29 729.121 2105.06 717.289 2103.35 708.332C2102.13 702.455 2101.39 696.636 2101.11 690.748C2101.02 688.696 2100.98 686.622 2101.01 684.524C2101.12 676.893 2102.05 668.968 2104.43 660.842C2109.61 641.765 2121.87 619.946 2139.73 606.959C2199.64 565.129 2253.38 553.311 2290.95 544.638C2311.07 540.43 2326.15 537.376 2335.74 535.384C2337.23 535.076 2338.56 534.798 2339.8 534.541C2340.89 534.314 2341.87 534.108 2342.73 533.93C2355.7 531.22 2367.06 528.659 2378.44 525.736C2379.05 525.58 2379.69 525.414 2380.3 525.251C2391.58 522.342 2406.34 517.798 2411.44 514.312C2411.5 514.272 2411.55 514.237 2411.59 514.206C2418.59 509.221 2425.08 504.588 2429.28 500.845C2430.5 499.773 2431.49 498.771 2432.14 498.052C2432.74 481.672 2430.57 466.612 2426.32 457.666C2420.16 444.278 2413.72 432.228 2407.08 422.463C2403.4 417.054 2399.62 412.353 2396.18 409.001C2396.17 408.991 2396.16 408.981 2396.15 408.972C2393.87 406.712 2391.72 405.18 2390.34 404.385C2389.85 404.348 2389.26 404.313 2388.63 404.286C2386.53 404.196 2384.04 404.185 2381.49 404.226C2376.34 404.31 2371 404.582 2365.66 404.931C2354.95 405.641 2344.37 406.655 2333.93 407.778C2312.67 410.089 2294.3 412.732 2278.29 415.239C2257.73 418.235 2246.26 422.088 2232.39 427.364C2225.29 430.071 2218.59 432.772 2212.15 435.383C2211.93 435.472 2211.71 435.562 2211.49 435.652C2198.13 441.173 2185.79 446.937 2172.92 452.66C2148.61 463.488 2125.84 473.84 2101.21 482.468C2099.04 483.222 2096.76 483.986 2094.54 484.706C2085.57 487.593 2076.3 490.25 2065.76 492.094C2048.16 495.117 2030.33 498.171 2010.17 499.907C2003.21 500.496 1996.93 499.744 1996.78 498.602C1996.59 497.466 2002.45 496.393 2009.31 495.825C2029.34 494.135 2047.22 491.076 2065.11 488.001C2074.51 486.359 2083.06 483.989 2091.32 481.386C2093.6 480.665 2095.78 479.94 2098.02 479.177C2122.43 470.777 2145.61 460.301 2170.37 449.274C2182.76 443.761 2194.49 438.29 2207.79 432.702C2208.75 432.298 2209.71 431.904 2210.65 431.521C2216.51 429.144 2222.71 426.646 2229.37 424.083C2243.75 418.564 2256.37 414.204 2277.69 411.145C2293.68 408.642 2311.96 406.013 2333.06 403.711C2343.57 402.576 2354.23 401.548 2365.1 400.821C2370.54 400.462 2375.95 400.181 2381.29 400.089C2383.92 400.045 2386.5 400.052 2388.77 400.147C2389.87 400.193 2390.85 400.262 2391.55 400.335C2393.25 401.171 2395.8 402.897 2398.48 405.463C2402.19 408.965 2406.17 413.822 2410.02 419.407C2417.03 429.585 2423.71 442.07 2430.09 455.935C2434.87 466.118 2437 482.267 2436.22 499.605C2435.57 500.487 2434.05 502.15 2432.02 503.937C2427.53 507.925 2420.99 512.582 2413.99 517.571C2413.95 517.6 2413.9 517.631 2413.86 517.663C2408.15 521.555 2394.55 525.764 2383.13 528.795C2382.47 528.971 2381.8 529.148 2381.12 529.325C2369.78 532.284 2357.79 535.007 2344.08 537.873C2342.28 538.247 2339.86 538.748 2337.08 539.323C2327.43 541.33 2312.15 544.425 2291.78 548.684C2254.49 557.258 2200.97 569.201 2142.23 610.246C2125.18 622.656 2113.47 643.381 2108.4 661.975C2106.1 669.843 2105.21 677.573 2105.14 685.049C2105.13 685.599 2105.13 686.147 2105.14 686.694C2105.21 694.011 2106.03 700.845 2107.41 707.444C2109.32 720.747 2121.54 736.729 2132.91 742.002C2144.11 747.946 2153.18 749.525 2161.24 750.977C2177.28 753.498 2190.24 753.821 2202.27 754.223C2226.04 754.806 2244.99 754.533 2261.61 754.292C2268.95 754.174 2275.68 753.812 2282 753.349C2312.91 750.93 2335.08 748.206 2353.28 746.472C2356.75 746.128 2360 745.809 2363.1 745.516C2372.42 744.638 2380.29 743.959 2387.39 743.481C2390.37 743.281 2393.18 743.146 2395.88 743.087C2402.87 742.891 2408.6 743.558 2411.21 744.372C2412.57 744.784 2413.24 745.005 2414.42 745.813C2415.59 746.607 2417.3 748.297 2419.52 750.789C2426.81 758.822 2433.34 767.862 2439.78 778.517C2451.24 797.348 2460.83 824.405 2465.34 848.07C2465.34 848.081 2465.34 848.091 2465.35 848.102C2465.35 848.122 2465.35 848.142 2465.36 848.162C2465.82 850.51 2466.1 852.921 2466.23 855.336C2466.69 863.652 2465.1 873.546 2461.66 883.56C2457.02 895.691 2440.17 911.235 2426.25 924.837C2422.44 928.486 2416.59 931.564 2410.4 934.026C2376.59 946.236 2340.39 949.599 2324.42 952.019C2323.11 952.185 2321.77 952.359 2320.4 952.538C2306.27 954.339 2290 955.625 2270.66 956.529C2265.82 956.754 2260.79 956.953 2255.57 957.126C2238.31 957.719 2219.02 957.931 2197.43 958.303C2189.51 958.452 2181.75 958.669 2174.19 959.078C2112.05 962.137 2072.09 991.04 2046.84 1008.86C2041.79 1012.49 2037.4 1016.54 2033.66 1020.73C2027.32 1027.85 2022.84 1035.32 2019.48 1042.3C2019.48 1042.31 2019.47 1042.32 2019.47 1042.34C2009.49 1064.06 2007.36 1080.87 2004.12 1095C2003.35 1098.69 2002.76 1102.24 2002.27 1105.67C1999.31 1127.84 1999.66 1146.1 1999.77 1164.97C1999.97 1179.54 2007.22 1193.43 2016.05 1203C2038 1226.34 2069.05 1236.61 2097.72 1243.84C2128.09 1249.21 2146.19 1242.08 2162.88 1239.02C2164.98 1238.53 2167.13 1238.01 2169.25 1237.5C2177.45 1235.51 2186.03 1233.31 2195.47 1230.85C2217.95 1225.02 2244.35 1217.2 2278.63 1207.37C2307.16 1199.2 2333.12 1192.15 2356.73 1186.91C2366.67 1184.72 2376.23 1182.91 2385.36 1181.53C2394.14 1180.19 2402.63 1179.23 2410.52 1178.72C2430.29 1177.35 2448.93 1179.05 2458.27 1184.4C2458.74 1184.67 2459.18 1184.94 2459.57 1185.2C2474.98 1195.65 2487.44 1210.13 2495.81 1223.51C2496.5 1224.27 2497.97 1230.21 2498.27 1235.49ZM2544.58 1231.48C2545.21 1239.86 2545.09 1247.16 2544.82 1254.06C2544.37 1266.43 2541.29 1278.28 2537.09 1288.09C2519.17 1326.32 2493.96 1343.85 2474.56 1362.23C2450.29 1382.04 2432.15 1384.42 2415.84 1391.21C2377.69 1404.69 2345.08 1414.42 2318.37 1423.88C2285.23 1436.02 2265.07 1460.84 2252.51 1477.37C2240.66 1493.51 2234.14 1506.86 2230.92 1515.45C2231.22 1515.49 2231.51 1515.52 2231.73 1515.55C2233.77 1515.83 2240.25 1516.36 2247.56 1516.75C2250.09 1516.89 2252.6 1517.02 2254.98 1517.14C2264.39 1517.6 2271.13 1517.91 2278.24 1518.2C2278.96 1518.23 2279.67 1518.26 2280.4 1518.29C2286.81 1518.53 2293.82 1518.76 2303.94 1518.85C2310.1 1518.91 2314.52 1519.84 2313.78 1520.99C2313.05 1522.14 2307.4 1523.06 2301.23 1522.99C2290.57 1522.87 2283.1 1522.6 2276.63 1522.33C2275.91 1522.3 2275.19 1522.27 2274.47 1522.24C2267.64 1521.93 2261.67 1521.64 2253.28 1521.21C2251.23 1521.12 2249.27 1521.03 2247.38 1520.93C2240.03 1520.58 2233.72 1520.19 2229.5 1519.6C2229.46 1519.72 2229.43 1519.83 2229.4 1519.94C2229.42 1519.82 2229.44 1519.71 2229.46 1519.6C2228.43 1519.46 2227.53 1519.3 2226.76 1519.13C2226.54 1519.08 2226.33 1519.03 2226.16 1518.99C2225.98 1518.6 2225.82 1518.22 2225.7 1517.89C2228.8 1508.13 2236.16 1491.88 2251.48 1471.77C2263.85 1456.2 2283.56 1432.29 2316.96 1420C2343.53 1410.58 2376.12 1400.86 2414.43 1387.33C2430.65 1380.63 2448.82 1377.98 2471.81 1359.16C2491.11 1340.94 2516 1323.37 2533.25 1286.58C2537.3 1277.14 2540.25 1265.79 2540.69 1253.93C2540.21 1239.65 2544.57 1227.49 2532.06 1201.32C2519.86 1181.84 2504.82 1164.49 2483.85 1149.78C2452.65 1131.24 2427.39 1135.21 2403.13 1136.26C2402.2 1136.34 2401.34 1136.42 2400.45 1136.51C2382.11 1138.25 2364.58 1141.41 2347.58 1145.11C2294.02 1157.18 2245.82 1171.22 2208.65 1180.22C2200.88 1182.13 2193.12 1183.98 2185.51 1185.67C2157.99 1191.66 2123.25 1199.67 2109.46 1196.65C2093.31 1192.7 2077.48 1187.49 2064.69 1180.66C2051.45 1173.95 2044.68 1164.8 2045.47 1162.5C2044.42 1141.44 2043.88 1119.81 2046.98 1103.19C2051.99 1075.36 2058.73 1053.15 2072.21 1044.37C2105.89 1019.56 2138.52 1004.23 2176.94 1002.48C2204.55 1001.01 2234.49 1001.4 2264.67 1000.44C2286.05 999.347 2306.66 997.899 2327.4 994.36C2341.83 991.85 2355.72 989.283 2369.34 986.41C2397.06 979.153 2422.13 978.702 2453.52 952.589C2468.35 936.43 2483.61 927.663 2497.92 896.545C2503.61 880.068 2507.1 862.134 2504.23 842.567C2501.08 823.292 2496.16 806.061 2489.81 789.083C2485.32 778.404 2478.22 754.026 2454.47 723.235C2450.69 718.454 2442.69 708.757 2431.37 703.703C2420.3 698.637 2410.23 697.721 2401.05 697.336C2395.7 697.16 2390.46 697.302 2385.27 697.61C2371.95 698.441 2358.7 699.873 2344.68 701.324C2318.96 703.943 2290.65 707.321 2261.7 707.897C2236.25 708.118 2208.89 708.978 2182.29 707.49C2170.25 706.78 2159.48 704.959 2154.84 702.589C2153.16 701.762 2152.62 701.244 2152.27 700.872C2151.92 700.493 2151.43 699.766 2150.98 697.916C2149.11 689.82 2148.76 680.923 2150.66 674.03C2153.89 662.429 2158.59 652.427 2168.45 644.797C2182.6 634.042 2202.4 622.931 2227.87 612.625C2248.71 604.212 2273.41 596.548 2300.48 590.982C2343.42 580.21 2385.33 581.007 2439.74 553.73C2446.49 548.923 2453.54 544.141 2461.1 537.634C2467.99 531.201 2479.21 522.052 2480.83 503.203C2481.91 481.395 2480.88 459.177 2471.25 437.039C2457.12 407.49 2444.69 379.165 2414.55 360.177C2412.1 358.807 2409.44 357.543 2406.66 356.503C2401.78 354.813 2399.84 354.755 2397.55 354.396C2395.32 354.114 2393.55 353.981 2391.81 353.873C2388.33 353.667 2385.26 353.619 2382.27 353.612C2376.42 353.607 2371.05 353.793 2366.04 354.023C2356.03 354.496 2347.33 355.166 2339.51 355.829C2323.9 357.174 2312.06 358.493 2302.11 359.635C2296.41 360.294 2291.34 360.91 2286.75 361.486C2280.94 362.217 2275.83 362.89 2270.65 363.608C2264.99 364.399 2259.23 365.228 2252.34 366.561C2228.96 371.113 2210.3 379.08 2192.85 385.68C2145.71 404.267 2105.02 427.873 2057.2 438.69C2044.67 440.861 2031.71 443.053 2018.29 444.8C2012.34 445.576 2007.18 445.139 2006.69 444.034C2006.17 442.932 2010.34 441.625 2016.23 440.881C2030.07 439.127 2043.51 436.851 2056.54 434.595C2102.64 424.232 2143.71 400.678 2191.35 381.828C2208.96 375.175 2228.04 367.005 2252.16 362.385C2258.87 361.103 2264.56 360.28 2270.04 359.513C2275.97 358.691 2281.73 357.936 2288.16 357.135C2292.74 356.565 2297.6 355.983 2303.06 355.356C2312.81 354.248 2324.5 352.955 2339.95 351.637C2347.68 350.99 2356.31 350.333 2366.28 349.87C2371.28 349.646 2376.61 349.464 2382.5 349.474C2385.51 349.484 2388.62 349.535 2392.19 349.749C2393.97 349.861 2395.81 350 2398.16 350.3C2400.61 350.691 2402.62 350.723 2408.11 352.621C2411.39 353.849 2414.46 355.336 2417.31 356.974C2448.6 377.242 2460.77 405.649 2475.02 435.31C2485.08 458.479 2486.04 481.173 2484.96 503.406C2483.12 524.38 2470.89 534.076 2463.82 540.74C2455.99 547.48 2448.88 552.282 2442.14 557.093C2385.09 585.661 2344.49 584.097 2301.31 595.032C2274.56 600.531 2250.19 608.088 2229.65 616.362C2204.27 626.61 2184.67 637.653 2170.95 648.088C2162.06 655.001 2157.77 663.943 2154.64 675.166C2153.01 681.054 2153.25 689.417 2155.04 697.029C2155.36 698.317 2155.64 698.555 2155.59 698.404C2155.58 698.344 2155.53 698.253 2155.58 698.274C2155.64 698.291 2155.81 698.416 2156.23 698.636C2158.72 700.261 2169.13 702.537 2180.9 703.236C2207.59 704.885 2235.73 703.965 2261.71 703.747C2289.71 703.194 2317.48 699.935 2342.68 697.363C2357.3 695.849 2371.13 694.335 2385.07 693.464C2389.66 693.192 2394.28 693.048 2399.05 693.131C2408.94 693.405 2419.79 694.128 2432.13 699.476C2444.85 704.822 2453.95 715.83 2457.74 720.658C2481.14 751.072 2487.71 773.408 2491.8 782.485C2499.22 801.316 2504.83 820.381 2508.36 841.979C2511.35 862.543 2507.65 881.058 2501.82 897.941C2486.39 931.229 2471.21 939.263 2456.42 955.537C2422.29 983.625 2397.2 983.22 2368.96 990.718C2355.6 993.514 2342.08 996.006 2328.08 998.44C2307.27 1001.99 2286.88 1003.43 2265.89 1004.52C2235.43 1006.66 2204.94 1007.16 2177.37 1009.3C2140.4 1012.1 2110.59 1026.59 2077.18 1051.33C2067.27 1057.52 2060.43 1076.82 2055.36 1104.79C2052.42 1119.77 2052.64 1141.27 2053.47 1162.07C2053.44 1161.92 2053.25 1161.55 2053.35 1161.92C2053.46 1162.25 2053.99 1163.25 2055.19 1164.59C2057.57 1167.32 2062.4 1171 2068.24 1174.25C2080.05 1180.86 2095.35 1186.26 2111.02 1190.42C2121.04 1193.57 2157.42 1186.55 2184.51 1181.13C2192.1 1179.62 2199.85 1177.95 2207.6 1176.23C2244.74 1167.24 2292.92 1153.19 2346.7 1141.07C2363.85 1137.34 2381.57 1134.14 2400.19 1132.37C2401.07 1132.29 2401.92 1132.22 2402.83 1132.14C2427.49 1131.17 2452.97 1126.72 2486.19 1146.36C2507.79 1161.52 2523.05 1179.15 2535.59 1199.16C2543.83 1214.12 2543.56 1222.93 2544.58 1231.48ZM2514.53 1212.05C2522.32 1226.87 2520.89 1240.62 2520.99 1253.27C2520.77 1262.13 2518.75 1270.57 2515.72 1277.94C2502.26 1308.33 2478.24 1326.54 2458.7 1344.51C2442.18 1358.34 2423.75 1362.32 2407.63 1368.57C2370.35 1381.49 2337.52 1390.95 2309.83 1400.46C2268.57 1415.46 2246.19 1443.45 2231.99 1461.83C2220.71 1477.27 2210.57 1494.39 2204.77 1513.93C2203.38 1519.92 2205.52 1525.48 2208.11 1530.29C2211.39 1537.15 2219.68 1539.85 2226.18 1540.64C2232.98 1541.6 2239.67 1541.86 2246.42 1542.17C2289.44 1544.28 2333.57 1541.14 2375.78 1541.5C2376.04 1541.34 2376.31 1541.18 2376.57 1541.02C2376.99 1540.61 2377.38 1540.12 2377.48 1539.96C2377.52 1539.91 2377.45 1539.95 2377.35 1540.51C2377.32 1540.7 2377.29 1541.06 2377.32 1541.51C2378.63 1541.52 2379.93 1541.54 2381.23 1541.56C2381.38 1541.57 2381.51 1541.59 2381.64 1541.61C2381.26 1542.48 2380.29 1543.69 2379.26 1544.57C2379.12 1544.66 2378.98 1544.75 2378.84 1544.84C2379.63 1545.66 2380.4 1545.94 2380.68 1546.03C2380.82 1546.07 2380.91 1546.09 2380.97 1546.1C2379.6 1546.04 2378.25 1546 2376.93 1545.97C2370.29 1549.65 2362.8 1551.52 2355.17 1552.41L2355.4 1552.38C2349.04 1552.73 2342.48 1552.55 2335.97 1552.37C2326.39 1551.49 2339.32 1549.29 2354.77 1548.07C2357.06 1547.7 2359.39 1547.29 2361.69 1546.82C2362.33 1546.68 2362.96 1546.54 2363.58 1546.38C2364.01 1546.28 2364.42 1546.17 2364.84 1546.05C2362.6 1546.11 2360.45 1546.19 2358.37 1546.24C2346.73 1546.4 2297.89 1549.18 2246.23 1546.58C2239.46 1546.21 2232.72 1545.91 2225.54 1544.85C2221.95 1544.27 2218.16 1543.55 2214.14 1541.62C2210.08 1539.78 2206.39 1535.92 2204.53 1532.35C2201.67 1526.9 2199.08 1520.75 2200.83 1512.96C2208.81 1487 2222.02 1468.07 2231.3 1455.77C2245.3 1438.49 2266.32 1411.03 2307.75 1394.78C2335.15 1384.63 2367.83 1374.42 2404.87 1360.97C2420.77 1354.65 2439.29 1349.82 2452.87 1337.99C2472.24 1320 2495.71 1301.36 2507.43 1274.07C2510.01 1267.67 2511.77 1260.57 2512.13 1252.98C2512.5 1241.02 2513.44 1226.92 2508.01 1216.04C2498.39 1200.09 2485.09 1184.41 2468.25 1172.54C2450.5 1161.17 2426.24 1162.01 2404.13 1164.03C2403.95 1164.05 2403.76 1164.07 2403.57 1164.09C2386.75 1165.89 2370.01 1169.12 2353.67 1172.9C2303.07 1185 2255.35 1199.43 2217.59 1208.64C2208.49 1210.9 2199.91 1212.91 2191.89 1214.62C2155.57 1221.82 2129.28 1228.81 2103.37 1223.72C2103.17 1223.66 2102.97 1223.61 2102.77 1223.55C2102.68 1223.53 2102.58 1223.5 2102.49 1223.47C2087.82 1219.3 2073.49 1214.49 2058.2 1206.87C2043.99 1199.07 2023.24 1188.7 2020.1 1164.95C2020.07 1164.59 2020.05 1164.23 2020.04 1163.87C2019.29 1144.41 2018.07 1121.9 2022.35 1098.48C2025.45 1083.23 2028.6 1067.1 2035.57 1052.08C2040.57 1041.3 2047.96 1031.33 2057.91 1024.36C2092.45 998.572 2134.02 979.476 2175.37 977.828C2207.79 975.988 2238.55 976.097 2265.08 974.635C2271.39 974.316 2276.79 974.894 2277.13 976.017C2277.48 977.138 2272.61 978.388 2266.27 978.717C2239.39 980.224 2208.16 980.11 2175.64 981.953C2134.97 983.624 2094.68 1002.12 2060.31 1027.72C2050.67 1034.47 2043.61 1044.2 2038.79 1054.98C2032.47 1069.07 2029.41 1084.47 2026.41 1099.26C2022.24 1121.95 2023.42 1144.46 2024.16 1163.65C2024.18 1163.95 2024.19 1164.24 2024.22 1164.53C2026.59 1185.08 2046.25 1195.82 2060.38 1203.31C2075.43 1210.77 2089.65 1215.48 2103.78 1219.49C2104.71 1219.75 2105.67 1219.98 2106.65 1220.18C2106.95 1220.24 2107.25 1220.3 2107.56 1220.36C2131.28 1223.57 2156.61 1217.54 2191 1210.58C2198.93 1208.89 2207.46 1206.89 2216.54 1204.65C2253.9 1195.54 2301.5 1181.13 2352.78 1168.86C2368.87 1165.13 2385.31 1161.94 2402.12 1160.08C2402.18 1160.07 2402.23 1160.07 2402.29 1160.06C2425.16 1158.04 2449.87 1155.61 2471.3 1168.08C2489.27 1179.93 2503.63 1195.44 2514.53 1212.05ZM2467.31 119.456C2468.7 144.813 2449.7 165.181 2435.5 174.988C2414.32 190.025 2393.16 198.981 2372.52 209.612C2338.59 226.153 2304.11 232.036 2270.76 239.883C2265.86 241.011 2260.96 242.102 2256.06 243.165C2231.96 248.42 2216.7 251.232 2184.77 259.64C2182.91 260.136 2181.01 260.649 2179.01 261.195C2162.27 265.792 2140.86 272.052 2112.27 281.454C2106.39 283.395 2101.01 284.244 2100.24 283.296C2099.47 282.353 2103.6 279.959 2109.51 278.004C2138.88 268.309 2160.78 261.905 2177.98 257.182C2179.06 256.886 2180.12 256.6 2181.14 256.322C2213.94 247.58 2230.12 244.582 2254.9 239.185C2259.89 238.105 2264.87 236.998 2269.85 235.851C2303.21 228.017 2337.56 222.082 2370.67 205.925C2391.04 195.452 2411.86 186.515 2432.15 172.316C2446.28 162.664 2464.47 143.616 2463.18 119.596C2460.47 87.0947 2464.62 59.1804 2439.85 26.3701C2436.37 22.9702 2431.43 17.4207 2423.99 13.0547C2416.64 8.53182 2406.36 6.47549 2398.28 7.52407C2378.58 9.60285 2361.9 12.4214 2348.93 15.1186C2342.46 16.4564 2337.09 16.8047 2336.88 15.6775C2336.69 14.5551 2341.79 12.374 2348.33 11.0244C2361.35 8.32237 2378.1 5.4982 2397.86 3.41401C2406.65 2.25651 2418.07 4.54206 2426.08 9.47718C2434.16 14.2318 2439.38 20.1382 2442.76 23.4194C2469.54 59.1285 2464.36 86.4543 2467.31 119.456ZM2287.99 1564.68C2287.93 1565.82 2282.63 1566.75 2276.16 1566.67C2265.91 1566.54 2255.67 1566.26 2245.37 1565.79C2240.14 1565.54 2234.87 1565.29 2228.92 1564.73C2221.71 1564.2 2213.16 1561.12 2213.53 1559.92C2214.16 1559.02 2222.6 1560.13 2229.58 1560.64C2235.27 1561.17 2240.42 1561.42 2245.55 1561.66C2255.88 1562.13 2266.15 1562.41 2276.45 1562.54C2282.88 1562.62 2288.05 1563.54 2287.99 1564.68ZM2226.52 1519.71C2226.66 1519.96 2226.62 1519.86 2226.38 1519.6C2226.14 1519.34 2225.7 1518.98 2225.42 1518.82C2225.42 1518.81 2225.42 1518.81 2225.42 1518.81C2225.4 1518.86 2225.39 1518.91 2225.37 1518.95C2225.38 1518.9 2225.39 1518.85 2225.4 1518.8C2225.07 1518.62 2225.09 1518.65 2225.41 1518.76C2225.52 1518.11 2225.55 1517.67 2225.55 1517.39C2225.58 1517.53 2225.64 1517.7 2225.7 1517.89C2225.61 1518.19 2225.52 1518.48 2225.43 1518.77C2225.6 1518.83 2225.84 1518.9 2226.16 1518.99C2226.27 1519.23 2226.39 1519.48 2226.52 1519.71ZM2225.55 1517.39C2225.53 1517.32 2225.52 1517.27 2225.51 1517.22C2225.4 1516.87 2225.54 1516.79 2225.55 1517.39ZM2379.05 1544.75C2379.12 1544.69 2379.19 1544.63 2379.26 1544.57C2379.3 1544.55 2379.33 1544.53 2379.37 1544.51L2379.05 1544.75ZM2382.05 1541.71C2381.95 1541.67 2381.81 1541.64 2381.64 1541.61C2381.66 1541.56 2381.68 1541.51 2381.7 1541.46C2381.79 1541.25 2381.79 1541.11 2381.8 1541.18C2381.8 1541.25 2381.95 1541.6 2382.1 1541.72C2382.26 1541.84 2382.23 1541.76 2382.05 1541.71ZM2391.63 400.344C2391.6 400.341 2391.58 400.338 2391.55 400.335C2391.13 400.132 2390.77 399.981 2390.46 399.884C2391.87 400.389 2392.13 400.383 2392.18 400.409C2392.22 400.418 2391.96 400.378 2391.63 400.344ZM2399.99 54.85C2399.76 54.6709 2399.64 54.6039 2399.63 54.6349C2399.64 54.6541 2399.77 54.7395 2399.99 54.85ZM2402.03 51.2539C2401.69 51.1394 2401.5 50.9873 2401.78 51.1217C2401.84 51.1482 2401.93 51.1922 2402.03 51.2539ZM2402.85 51.4518C2402.7 51.4698 2402.55 51.4879 2402.4 51.506C2402.25 51.4018 2402.13 51.3183 2402.03 51.2539C2402.06 51.2669 2402.1 51.2803 2402.15 51.2918C2402.55 51.419 2402.96 51.4218 2402.85 51.4518ZM2436.52 499.22C2436.39 499.524 2436.19 500.264 2436.15 501.003C2436.18 500.536 2436.2 500.07 2436.22 499.605C2436.28 499.524 2436.33 499.452 2436.38 499.384C2436.65 498.992 2436.64 498.902 2436.52 499.22Z" fill="#884404"/>
</g>
<g filter="url(#filter1_d_10_63)">
<path d="M2875.33 885.558L2875.54 935.558L1580.39 942.56L1580.18 892.561L2875.33 885.558Z" fill="black"/>
</g>
<g filter="url(#filter2_d_10_63)">
<path d="M4647.91 920.836C4659.65 928.335 4659.61 945.496 4647.83 952.922L4221.36 1221.79C4208.69 1229.78 4192.18 1220.64 4192.22 1205.66L4193.52 665.281C4193.55 650.3 4210.11 641.263 4222.74 649.329L4647.91 920.836Z" fill="#8DAF6B"/>
</g>
<g filter="url(#filter3_d_10_63)">
<path d="M17.4447 969.253C5.48279 962.213 5.00835 945.055 16.5578 937.177L434.705 651.948C447.126 643.476 463.894 651.972 464.308 666.947L479.242 1207.06C479.656 1222.03 463.39 1231.71 450.526 1224.14L17.4447 969.253Z" fill="#8DAF6B"/>
</g>
<g filter="url(#filter4_d_10_63)">
<path d="M924 935.5C924 1016.96 860.872 1083 783 1083C705.128 1083 642 1016.96 642 935.5C642 854.038 705.128 788 783 788C860.872 788 924 854.038 924 935.5Z" fill="#597ABB"/>
</g>
<g filter="url(#filter5_d_10_63)">
<path d="M1423 935.5C1423 1016.96 1359.87 1083 1282 1083C1204.13 1083 1141 1016.96 1141 935.5C1141 854.038 1204.13 788 1282 788C1359.87 788 1423 854.038 1423 935.5Z" fill="#597ABB"/>
</g>
<g filter="url(#filter6_d_10_63)">
<path d="M3375 943C3375 1024.19 3311.87 1090 3234 1090C3156.13 1090 3093 1024.19 3093 943C3093 861.814 3156.13 796 3234 796C3311.87 796 3375 861.814 3375 943Z" fill="#597ABB"/>
</g>
<g filter="url(#filter7_d_10_63)">
<path d="M3875 943C3875 1024.19 3811.87 1090 3734 1090C3656.13 1090 3593 1024.19 3593 943C3593 861.814 3656.13 796 3734 796C3811.87 796 3875 861.814 3875 943Z" fill="#597ABB"/>
</g>
<defs>
<filter id="filter0_d_10_63" x="1929.87" y="3.11829" width="619.163" height="1571.56" filterUnits="userSpaceOnUse" color-interpolation-filters="sRGB">
<feFlood flood-opacity="0" result="BackgroundImageFix"/>
<feColorMatrix in="SourceAlpha" type="matrix" values="0 0 0 0 0 0 0 0 0 0 0 0 0 0 0 0 0 0 127 0" result="hardAlpha"/>
<feOffset dy="4"/>
<feGaussianBlur stdDeviation="2"/>
<feComposite in2="hardAlpha" operator="out"/>
<feColorMatrix type="matrix" values="0 0 0 0 0 0 0 0 0 0 0 0 0 0 0 0 0 0 0.25 0"/>
<feBlend mode="normal" in2="BackgroundImageFix" result="effect1_dropShadow_10_63"/>
<feBlend mode="normal" in="SourceGraphic" in2="effect1_dropShadow_10_63" result="shape"/>
</filter>
<filter id="filter1_d_10_63" x="1576.18" y="885.558" width="1303.36" height="65.0023" filterUnits="userSpaceOnUse" color-interpolation-filters="sRGB">
<feFlood flood-opacity="0" result="BackgroundImageFix"/>
<feColorMatrix in="SourceAlpha" type="matrix" values="0 0 0 0 0 0 0 0 0 0 0 0 0 0 0 0 0 0 127 0" result="hardAlpha"/>
<feOffset dy="4"/>
<feGaussianBlur stdDeviation="2"/>
<feComposite in2="hardAlpha" operator="out"/>
<feColorMatrix type="matrix" values="0 0 0 0 0 0 0 0 0 0 0 0 0 0 0 0 0 0 0.25 0"/>
<feBlend mode="normal" in2="BackgroundImageFix" result="effect1_dropShadow_10_63"/>
<feBlend mode="normal" in="SourceGraphic" in2="effect1_dropShadow_10_63" result="shape"/>
</filter>
<filter id="filter2_d_10_63" x="4188.22" y="646.309" width="472.471" height="586.437" filterUnits="userSpaceOnUse" color-interpolation-filters="sRGB">
<feFlood flood-opacity="0" result="BackgroundImageFix"/>
<feColorMatrix in="SourceAlpha" type="matrix" values="0 0 0 0 0 0 0 0 0 0 0 0 0 0 0 0 0 0 127 0" result="hardAlpha"/>
<feOffset dy="4"/>
<feGaussianBlur stdDeviation="2"/>
<feComposite in2="hardAlpha" operator="out"/>
<feColorMatrix type="matrix" values="0 0 0 0 0 0 0 0 0 0 0 0 0 0 0 0 0 0 0.25 0"/>
<feBlend mode="normal" in2="BackgroundImageFix" result="effect1_dropShadow_10_63"/>
<feBlend mode="normal" in="SourceGraphic" in2="effect1_dropShadow_10_63" result="shape"/>
</filter>
<filter id="filter3_d_10_63" x="4.17712" y="648.59" width="479.073" height="586.184" filterUnits="userSpaceOnUse" color-interpolation-filters="sRGB">
<feFlood flood-opacity="0" result="BackgroundImageFix"/>
<feColorMatrix in="SourceAlpha" type="matrix" values="0 0 0 0 0 0 0 0 0 0 0 0 0 0 0 0 0 0 127 0" result="hardAlpha"/>
<feOffset dy="4"/>
<feGaussianBlur stdDeviation="2"/>
<feComposite in2="hardAlpha" operator="out"/>
<feColorMatrix type="matrix" values="0 0 0 0 0 0 0 0 0 0 0 0 0 0 0 0 0 0 0.25 0"/>
<feBlend mode="normal" in2="BackgroundImageFix" result="effect1_dropShadow_10_63"/>
<feBlend mode="normal" in="SourceGraphic" in2="effect1_dropShadow_10_63" result="shape"/>
</filter>
<filter id="filter4_d_10_63" x="638" y="788" width="290" height="303" filterUnits="userSpaceOnUse" color-interpolation-filters="sRGB">
<feFlood flood-opacity="0" result="BackgroundImageFix"/>
<feColorMatrix in="SourceAlpha" type="matrix" values="0 0 0 0 0 0 0 0 0 0 0 0 0 0 0 0 0 0 127 0" result="hardAlpha"/>
<feOffset dy="4"/>
<feGaussianBlur stdDeviation="2"/>
<feComposite in2="hardAlpha" operator="out"/>
<feColorMatrix type="matrix" values="0 0 0 0 0 0 0 0 0 0 0 0 0 0 0 0 0 0 0.25 0"/>
<feBlend mode="normal" in2="BackgroundImageFix" result="effect1_dropShadow_10_63"/>
<feBlend mode="normal" in="SourceGraphic" in2="effect1_dropShadow_10_63" result="shape"/>
</filter>
<filter id="filter5_d_10_63" x="1137" y="788" width="290" height="303" filterUnits="userSpaceOnUse" color-interpolation-filters="sRGB">
<feFlood flood-opacity="0" result="BackgroundImageFix"/>
<feColorMatrix in="SourceAlpha" type="matrix" values="0 0 0 0 0 0 0 0 0 0 0 0 0 0 0 0 0 0 127 0" result="hardAlpha"/>
<feOffset dy="4"/>
<feGaussianBlur stdDeviation="2"/>
<feComposite in2="hardAlpha" operator="out"/>
<feColorMatrix type="matrix" values="0 0 0 0 0 0 0 0 0 0 0 0 0 0 0 0 0 0 0.25 0"/>
<feBlend mode="normal" in2="BackgroundImageFix" result="effect1_dropShadow_10_63"/>
<feBlend mode="normal" in="SourceGraphic" in2="effect1_dropShadow_10_63" result="shape"/>
</filter>
<filter id="filter6_d_10_63" x="3089" y="796" width="290" height="302" filterUnits="userSpaceOnUse" color-interpolation-filters="sRGB">
<feFlood flood-opacity="0" result="BackgroundImageFix"/>
<feColorMatrix in="SourceAlpha" type="matrix" values="0 0 0 0 0 0 0 0 0 0 0 0 0 0 0 0 0 0 127 0" result="hardAlpha"/>
<feOffset dy="4"/>
<feGaussianBlur stdDeviation="2"/>
<feComposite in2="hardAlpha" operator="out"/>
<feColorMatrix type="matrix" values="0 0 0 0 0 0 0 0 0 0 0 0 0 0 0 0 0 0 0.25 0"/>
<feBlend mode="normal" in2="BackgroundImageFix" result="effect1_dropShadow_10_63"/>
<feBlend mode="normal" in="SourceGraphic" in2="effect1_dropShadow_10_63" result="shape"/>
</filter>
<filter id="filter7_d_10_63" x="3589" y="796" width="290" height="302" filterUnits="userSpaceOnUse" color-interpolation-filters="sRGB">
<feFlood flood-opacity="0" result="BackgroundImageFix"/>
<feColorMatrix in="SourceAlpha" type="matrix" values="0 0 0 0 0 0 0 0 0 0 0 0 0 0 0 0 0 0 127 0" result="hardAlpha"/>
<feOffset dy="4"/>
<feGaussianBlur stdDeviation="2"/>
<feComposite in2="hardAlpha" operator="out"/>
<feColorMatrix type="matrix" values="0 0 0 0 0 0 0 0 0 0 0 0 0 0 0 0 0 0 0.25 0"/>
<feBlend mode="normal" in2="BackgroundImageFix" result="effect1_dropShadow_10_63"/>
<feBlend mode="normal" in="SourceGraphic" in2="effect1_dropShadow_10_63" result="shape"/>
</filter>
</defs>
</svg>
